<svg id="Layer_1" data-name="Layer 1" xmlns="http://www.w3.org/2000/svg" xmlns:xlink="http://www.w3.org/1999/xlink" viewBox="0 0 1920 382.66"><defs><style>.cls-1{fill:none;}.cls-2,.cls-7{fill:#335296;}.cls-3,.cls-8{fill:#93d4da;}.cls-4{clip-path:url(#clip-path);}.cls-5{clip-path:url(#clip-path-2);}.cls-6{clip-path:url(#clip-path-3);}.cls-7,.cls-8{fill-rule:evenodd;}</style><clipPath id="clip-path"><rect class="cls-1" y="-351.49" width="1920" height="1080"/></clipPath><clipPath id="clip-path-2"><polygon class="cls-1" points="1136 65.13 1492.18 380.68 1492.18 65.12 1136 65.13"/></clipPath><clipPath id="clip-path-3"><polygon class="cls-1" points="374.27 65.39 730.45 380.94 1014.45 380.94 1014.45 65.38 374.27 65.39"/></clipPath></defs><title>diseno</title><rect class="cls-2" y="-351.49" width="1920" height="1080"/><polygon class="cls-3" points="384.23 130.46 401.52 130.46 401.52 147.75 418.81 147.75 418.81 165.05 401.52 165.05 401.52 182.34 384.23 182.34 384.23 165.05 366.94 165.05 366.94 147.75 384.23 147.75 384.23 130.46"/><g class="cls-4"><path class="cls-3" d="M347.3,310.28c-20,0-30.37-7.1-39.52-13.35-8.16-5.58-15.2-10.39-29.95-10.39s-21.79,4.81-29.95,10.39c-9.15,6.25-19.53,13.35-39.51,13.35s-30.36-7.1-39.52-13.35c-8.15-5.58-15.2-10.39-29.94-10.39s-21.79,4.81-29.94,10.39c-9.16,6.25-19.53,13.35-39.52,13.35s-30.36-7.1-39.51-13.35c-8.15-5.58-15.2-10.39-29.94-10.39v-17c20,0,30.36,7.09,39.51,13.35,8.16,5.57,15.2,10.39,29.94,10.39s21.79-4.82,30-10.39c9.15-6.26,19.53-13.35,39.51-13.35s30.36,7.09,39.52,13.35c8.15,5.57,15.19,10.39,29.94,10.39s21.79-4.82,29.94-10.39c9.16-6.26,19.53-13.35,39.52-13.35s30.36,7.09,39.52,13.35c8.15,5.57,15.2,10.39,29.95,10.39Z"/><path class="cls-3" d="M318.91,156.61a8.47,8.47,0,0,0-8.49-4l-56.91,8.25-55-42.58a8.52,8.52,0,0,0-6.41-1.69l-83.75,12.15-5.06-35.93a8.49,8.49,0,0,0-9.62-7.21L64.09,89.86a8.45,8.45,0,0,0-7.17,9.6l5.21,36-19,2.75a8.5,8.5,0,0,0-7,6.39L22.72,199.67a2.17,2.17,0,0,1,0,.25c0,.15-.06.3-.08.46s-.06.43-.08.64,0,.31,0,.47,0,.43,0,.65l0,.45c0,.22.07.45.11.67s.05.27.08.4a7.49,7.49,0,0,0,.23.77c0,.09.05.19.09.28a9.88,9.88,0,0,0,.45,1,1.64,1.64,0,0,1,.14.22c.14.24.29.48.45.71l.27.33c.11.14.21.28.33.41l.09.08a1.83,1.83,0,0,0,.13.16l20.9,21.29A100.13,100.13,0,0,1,69,266.49c0,.16.14.29.2.45a21.87,21.87,0,0,1,3.35-2.31,80.52,80.52,0,0,1,24-8.45c3-6.11,8.25-11,15-12.2,16.84-2.95,33.36-8.79,49.77-.68A40.91,40.91,0,0,1,172,250.88c2.07.78,4.15,1.66,6.28,2.66s4.13,2.09,6.19,3.15c.64.34,2.5,1.7,3.32,2.22l.25,0-.73-.68c2.44.59,2.9.83,1.41.74l1.08.09,1.72.13c16-1.25,31.81-3.81,47.79-6.48a25.37,25.37,0,0,1,21-8.66c7-8.44,14.78-18.41,22.43-29.55L318.46,166a8.48,8.48,0,0,0,.45-9.39M42.17,191.48l9.08-37.35L65.8,152l5.12,35.3Zm32.75-86.06,12.73-1.84,3.89,27.57L78.91,133ZM87.7,184.88l-5.12-35.3,33.6-4.87,5.11,35.3Zm50.38-7.31L133,142.27l34.39-5,5.12,35.29Zm51.18-7.42-5.12-35.3,6.81-1,39.22,30.35Z"/><path class="cls-3" d="M347.3,272.82c-20,0-30.37-7.1-39.52-13.35-8.16-5.58-15.2-10.39-29.95-10.39s-21.79,4.81-29.95,10.39c-9.15,6.25-19.53,13.35-39.51,13.35s-30.36-7.1-39.52-13.35c-8.15-5.58-15.2-10.39-29.94-10.39s-21.79,4.81-29.94,10.39c-9.16,6.25-19.53,13.35-39.52,13.35s-30.36-7.1-39.51-13.35c-8.15-5.58-15.2-10.39-29.94-10.39v-17c20,0,30.36,7.09,39.51,13.35,8.16,5.57,15.2,10.39,29.94,10.39s21.79-4.82,30-10.39c9.15-6.26,19.53-13.35,39.51-13.35s30.36,7.09,39.52,13.35c8.15,5.57,15.19,10.39,29.94,10.39s21.79-4.82,29.94-10.39c9.16-6.26,19.53-13.35,39.52-13.35s30.36,7.09,39.52,13.35c8.15,5.57,15.2,10.39,29.95,10.39Z"/><path class="cls-3" d="M347.3,385.2c-20,0-30.37-7.09-39.52-13.35-8.16-5.58-15.2-10.39-29.95-10.39s-21.79,4.81-29.95,10.39c-9.15,6.26-19.53,13.35-39.51,13.35s-30.36-7.09-39.52-13.35c-8.15-5.58-15.2-10.39-29.94-10.39s-21.79,4.81-29.94,10.39c-9.16,6.26-19.53,13.35-39.52,13.35s-30.36-7.09-39.51-13.35c-8.15-5.58-15.2-10.39-29.94-10.39v-17c20,0,30.36,7.09,39.51,13.35,8.16,5.58,15.2,10.39,29.94,10.39s21.79-4.81,30-10.39c9.15-6.26,19.53-13.35,39.51-13.35s30.36,7.09,39.52,13.35c8.15,5.58,15.19,10.39,29.94,10.39s21.79-4.81,29.94-10.39c9.16-6.26,19.53-13.35,39.52-13.35s30.36,7.09,39.52,13.35c8.15,5.58,15.2,10.39,29.95,10.39Z"/><path class="cls-3" d="M347.3,347.74c-20,0-30.37-7.09-39.52-13.35-8.16-5.58-15.2-10.39-29.95-10.39s-21.79,4.81-29.95,10.39c-9.15,6.26-19.53,13.35-39.51,13.35s-30.36-7.09-39.52-13.35c-8.15-5.58-15.2-10.39-29.94-10.39s-21.79,4.81-29.94,10.39c-9.16,6.26-19.53,13.35-39.52,13.35s-30.36-7.09-39.51-13.35C21.79,328.81,14.74,324,0,324V307c20,0,30.36,7.09,39.51,13.35,8.16,5.57,15.2,10.39,29.94,10.39s21.79-4.82,30-10.39c9.15-6.26,19.53-13.35,39.51-13.35s30.36,7.09,39.52,13.35c8.15,5.57,15.19,10.39,29.94,10.39s21.79-4.82,29.94-10.39c9.16-6.26,19.53-13.35,39.52-13.35s30.36,7.09,39.52,13.35c8.15,5.57,15.2,10.39,29.95,10.39Z"/></g><g class="cls-5"><rect class="cls-3" x="1162.33" y="60" width="16.96" height="319.53"/><rect class="cls-3" x="1136.26" y="60" width="16.96" height="319.53"/><rect class="cls-3" x="1188.41" y="60" width="16.96" height="319.53"/><rect class="cls-3" x="1214.49" y="60" width="16.96" height="319.53"/><rect class="cls-3" x="1240.57" y="60" width="16.96" height="319.53"/><rect class="cls-3" x="1266.65" y="60" width="16.96" height="319.53"/><rect class="cls-3" x="1292.73" y="60" width="16.96" height="319.53"/><rect class="cls-3" x="1318.81" y="60" width="16.96" height="319.53"/><rect class="cls-3" x="1344.89" y="60" width="16.96" height="319.53"/><rect class="cls-3" x="1370.97" y="60" width="16.96" height="319.53"/><rect class="cls-3" x="1397.05" y="60" width="16.96" height="319.53"/><rect class="cls-3" x="1423.12" y="60" width="16.96" height="319.53"/><rect class="cls-3" x="1449.2" y="60" width="16.96" height="319.53"/><rect class="cls-3" x="1475.28" y="60" width="16.96" height="319.53"/></g><g class="cls-6"><rect class="cls-3" x="400.61" y="60.26" width="16.96" height="319.53"/><rect class="cls-3" x="374.53" y="60.26" width="16.96" height="319.53"/><rect class="cls-3" x="426.69" y="60.26" width="16.96" height="319.53"/><rect class="cls-3" x="452.76" y="60.26" width="16.96" height="319.53"/><rect class="cls-3" x="478.84" y="60.26" width="16.96" height="319.53"/><rect class="cls-3" x="504.92" y="60.26" width="16.96" height="319.53"/><rect class="cls-3" x="531" y="60.26" width="16.96" height="319.53"/><rect class="cls-3" x="557.08" y="60.26" width="16.96" height="319.53"/><rect class="cls-3" x="583.16" y="60.26" width="16.96" height="319.53"/><rect class="cls-3" x="609.24" y="60.26" width="16.96" height="319.53"/><rect class="cls-3" x="635.32" y="60.26" width="16.96" height="319.53"/><rect class="cls-3" x="661.4" y="60.26" width="16.96" height="319.53"/><rect class="cls-3" x="687.48" y="60.26" width="16.96" height="319.53"/><rect class="cls-3" x="713.56" y="60.26" width="16.96" height="319.53"/><rect class="cls-3" x="766.5" y="63.13" width="16.96" height="319.53"/><rect class="cls-3" x="740.42" y="63.13" width="16.96" height="319.53"/><rect class="cls-3" x="792.58" y="63.13" width="16.96" height="319.53"/><rect class="cls-3" x="818.66" y="63.13" width="16.96" height="319.53"/><rect class="cls-3" x="844.74" y="63.13" width="16.96" height="319.53"/><rect class="cls-3" x="870.82" y="63.13" width="16.96" height="319.53"/><rect class="cls-3" x="896.9" y="63.13" width="16.96" height="319.53"/><rect class="cls-3" x="922.98" y="63.13" width="16.96" height="319.53"/><rect class="cls-3" x="949.06" y="63.13" width="16.96" height="319.53"/><rect class="cls-3" x="975.14" y="63.13" width="16.96" height="319.53"/><rect class="cls-3" x="1001.21" y="63.13" width="16.96" height="319.53"/><rect class="cls-3" x="1027.29" y="63.13" width="16.96" height="319.53"/><rect class="cls-3" x="1053.37" y="63.13" width="16.96" height="319.53"/><rect class="cls-3" x="1079.45" y="63.13" width="16.96" height="319.53"/></g><g class="cls-4"><polygon class="cls-3" points="1105.16 65.38 1014.45 65.38 1014.45 380.94 1123.04 380.94 1461.34 380.93 1105.16 65.38"/><polygon class="cls-7" points="86.14 201.37 96.94 201.37 96.94 211.87 105.54 205.85 111.73 214.69 100.95 222.24 111.73 229.79 105.54 238.64 96.94 232.61 96.94 243.11 86.14 243.11 86.14 232.61 77.54 238.64 71.35 229.79 82.13 222.24 71.35 214.69 77.54 205.85 86.14 211.87 86.14 201.37"/><polygon class="cls-8" points="593 296.19 615.11 296.19 615.11 317.69 632.71 305.36 645.4 323.47 623.32 338.92 645.4 354.38 632.71 372.49 615.11 360.16 615.11 381.66 593 381.66 593 360.16 575.39 372.49 562.7 354.38 584.78 338.92 562.7 323.47 575.39 305.36 593 317.69 593 296.19"/><polygon class="cls-2" points="1018.07 257.16 797.27 61.33 1238.13 61.56 1018.07 257.16"/><polygon class="cls-8" points="960.93 81.75 909.71 46.66 971.77 48.38 950.96 -10.11 1000.16 27.75 1017.7 -31.8 1035.24 27.75 1084.44 -10.11 1063.63 48.38 1125.69 46.66 1074.47 81.75 1125.69 116.83 1063.63 115.11 1084.44 173.6 1035.24 135.74 1017.7 195.29 1000.16 135.74 950.96 173.6 971.77 115.11 909.71 116.83 960.93 81.75"/><path class="cls-2" d="M1017.7,39.24a42.51,42.51,0,1,1-42.5,42.51,42.51,42.51,0,0,1,42.5-42.51"/><path class="cls-2" d="M552.36,90.14A40.32,40.32,0,1,1,512,130.46a40.32,40.32,0,0,1,40.33-40.32"/><path class="cls-3" d="M1857.3,375.59a31.46,31.46,0,0,0-31.37-29.29c-.54,0-1.07,0-1.6,0A67,67,0,0,0,1704,322.45a40.28,40.28,0,0,0-49.62,53.14Z"/><path class="cls-3" d="M1787.84,238a36.33,36.33,0,0,0,64.83,0Z"/><path class="cls-3" d="M1521.87,68.16a36.34,36.34,0,0,0,64.84,0Z"/><path class="cls-3" d="M1603,68.16a36.34,36.34,0,0,0,64.84,0Z"/><polygon class="cls-2" points="867.1 388.81 1018.03 253.41 1169.97 388.81 1004.55 388.81 867.1 388.81"/><polygon class="cls-3" points="552.36 223.16 651.95 145.88 799.34 275.86 853.22 222.9 1031.3 381.65 730.45 381.65 552.36 223.16"/><polygon class="cls-8" points="506.14 277.68 479.77 254.22 552.36 254.22 506.14 213.09 459.92 171.97 413.7 213.09 367.48 254.22 440.07 254.22 413.7 277.68 367.48 318.81 438.11 318.81 413.7 340.53 367.48 381.66 459.92 381.66 552.36 381.66 506.14 340.53 481.73 318.81 552.36 318.81 506.14 277.68"/><path class="cls-3" d="M1515.09,375.65h104.56a92.8,92.8,0,0,0-104.56-48.37Z"/><path class="cls-3" d="M1528.6,157.87a6.74,6.74,0,0,1-1.18-13.37L1788.6,97.57a6.74,6.74,0,1,1,2.38,13.26L1529.8,157.76a7,7,0,0,1-1.2.11"/><path class="cls-3" d="M1663.45,154.17a6.75,6.75,0,0,1-6.63-5.55l-5.31-29.57a6.74,6.74,0,1,1,13.26-2.38l5.32,29.57a6.74,6.74,0,0,1-5.44,7.82,7.14,7.14,0,0,1-1.2.11"/><path class="cls-3" d="M1691,145.78s-39.42,1.88-65.87,13.92l-16.42,13.87s-57,11.81-59.35,50.21c0,0,15.65,17,60.28,8.94l52.61-9.45s9.59-3.29,22.42-12.88S1717,182.73,1717,182.73l100.86-24.35,27.72,22.05,15.62-7.48-2.53-14.12,7-14.79-15.28-17.55,7.35-41.9s-16.42-5.89-21,3.77l-21.67,57.49-110.19,16Z"/><path class="cls-3" d="M1587.27,241.59c-30.26,0-42.3-12.59-42.9-13.24a6.73,6.73,0,0,1-1.78-5c2.39-39.49,52.74-53.55,63-56l15.16-12.82a6.5,6.5,0,0,1,1.56-1c27.31-12.43,66.68-14.44,68.34-14.52a6.76,6.76,0,0,1,5.41,2.31l11.55,13.3,102.61-14.91L1830.48,86l.21-.5c5.67-12,21.12-10.19,29.35-7.24a6.74,6.74,0,0,1,4.36,7.51l-6.78,38.73,13.16,15.13a6.72,6.72,0,0,1,1,7.32l-6.11,12.83,2.16,12a6.75,6.75,0,0,1-3.72,7.27l-15.63,7.49a6.77,6.77,0,0,1-7.11-.8l-25.14-20-96,23.17c-4.63,4.24-20.42,18.56-31.61,26.92-13.51,10.11-23.83,13.7-24.27,13.85a6.54,6.54,0,0,1-1,.26l-52.61,9.45a132.86,132.86,0,0,1-23.52,2.24m-30.84-20.75c5.3,3.47,20.86,10.84,52,5.25l52-9.35A90.22,90.22,0,0,0,1680.59,205c12.39-9.27,31.64-27,31.83-27.22a6.7,6.7,0,0,1,3-1.6l94-22.7-103.53,15.05a6.73,6.73,0,0,1-6.06-2.25l-11.76-13.55c-9.61.73-38.71,3.61-59.36,12.73L1613,178.72a6.81,6.81,0,0,1-3,1.45c-.5.1-48.49,10.49-53.61,40.67m52.24-47.27h0Zm209.83-21.9a6.69,6.69,0,0,1,3.54,1.44l24.42,19.42,7.2-3.44L1852,160a6.68,6.68,0,0,1,.55-4.08l5.14-10.81-12.38-14.21a6.77,6.77,0,0,1-1.55-5.59L1850,89.71c-3.11-.37-6.16-.15-7.07,1.38l-21.55,57.13a6.73,6.73,0,0,1-2.91,3.45"/><path class="cls-3" d="M1610.28,267.86c-7.69,0-14-2.24-18.94-6.72-10.68-9.74-9.39-26.18-9.33-26.88a6.74,6.74,0,0,1,13.43,1.14c-.22,2.94.24,11.5,5,15.82,3.32,3,8.65,3.88,15.84,2.58l70.93-12.74a6.74,6.74,0,1,1,2.38,13.26l-70.93,12.75a47.54,47.54,0,0,1-8.4.79"/><path class="cls-3" d="M1617.48,267.17a6.72,6.72,0,0,1-6.62-5.54l-5.07-28.23a6.74,6.74,0,1,1,13.26-2.38l5.07,28.22a6.74,6.74,0,0,1-5.44,7.83,6.94,6.94,0,0,1-1.2.1"/><path class="cls-3" d="M1671.41,257.49a6.75,6.75,0,0,1-6.63-5.55l-5.23-29.15a6.74,6.74,0,1,1,13.26-2.38l5.23,29.14a6.74,6.74,0,0,1-5.43,7.83,7.14,7.14,0,0,1-1.2.11"/><path class="cls-7" d="M1668.79,207.67a28.27,28.27,0,1,1,28.28-28.27,28.33,28.33,0,0,1-28.28,28.27"/><polygon class="cls-8" points="1663.55 159.13 1674.04 159.13 1674.04 169.33 1682.39 163.48 1688.4 172.07 1677.94 179.4 1688.4 186.73 1682.39 195.32 1674.04 189.47 1674.04 199.67 1663.55 199.67 1663.55 189.47 1655.2 195.32 1649.18 186.73 1659.65 179.4 1649.18 172.07 1655.2 163.48 1663.55 169.33 1663.55 159.13"/><path class="cls-2" d="M1556.43,220.84s0-23.45,49.25-39.56l9.27,44.19s-40.07,8.77-58.52-4.63"/><path class="cls-2" d="M1363.49,298.06a35.42,35.42,0,1,0,35.42-35.41,35.42,35.42,0,0,0-35.42,35.41"/><path class="cls-2" d="M1398.9,340.41a42.35,42.35,0,1,1,42.36-42.35,42.39,42.39,0,0,1-42.36,42.35m0-70.82a28.48,28.48,0,1,0,28.48,28.47,28.5,28.5,0,0,0-28.48-28.47"/><path class="cls-2" d="M1142.43,298.06a35.42,35.42,0,1,0,35.42-35.41,35.42,35.42,0,0,0-35.42,35.41"/><path class="cls-2" d="M1177.85,340.41a42.35,42.35,0,1,1,42.35-42.35,42.4,42.4,0,0,1-42.35,42.35m0-70.82a28.48,28.48,0,1,0,28.48,28.47,28.51,28.51,0,0,0-28.48-28.47"/><path class="cls-2" d="M1443.43,290.55l-20.86-35.42H1377.8l-29.11,35.42H1221.38l-21.71-35.42h-42.43L1136,290.55s-12.11,3.45-17.27-8.88V268.84h9.37l8.89-73H1310.2l27.14,35,78,3.46,7.4,11.35s13.32,0,14.31,6.9-.49,10.1-.49,10.1l2,5.2h10.86v16.28Z"/><path class="cls-2" d="M1132.24,298c-6.69,0-15.4-2.87-19.89-13.62a7,7,0,0,1-.54-2.67V268.84a6.94,6.94,0,0,1,6.94-6.94H1122l8.14-66.93a6.94,6.94,0,0,1,6.89-6.1H1310.2a6.91,6.91,0,0,1,5.48,2.69l25.18,32.49,74.75,3.32a6.89,6.89,0,0,1,5.5,3.14l5.49,8.41c7.93.87,16.12,4.51,17.28,12.65a33.71,33.71,0,0,1,.16,9.34h5.31a6.94,6.94,0,0,1,6.94,6.94v16.28a7,7,0,0,1-1.84,4.71l-5.93,6.41a6.94,6.94,0,0,1-11.07-1.18l-18.84-32h-37.53l-27,32.88a6.94,6.94,0,0,1-5.36,2.54H1221.38a6.93,6.93,0,0,1-5.91-3.32l-19.68-32.1h-34.62l-19.2,32a6.91,6.91,0,0,1-4,3.11,21,21,0,0,1-5.68.74m-6.55-17.85a7,7,0,0,0,6.1,4l19.5-32.54a6.92,6.92,0,0,1,6-3.38h42.43a6.94,6.94,0,0,1,5.92,3.32l19.68,32.1h120.14l27-32.88a6.92,6.92,0,0,1,5.36-2.54h38.28l-4.65-7.12-74.4-3.3a7,7,0,0,1-5.18-2.68l-25-32.34H1143.15L1135,269.67a6.93,6.93,0,0,1-6.89,6.1h-2.43Zm316.51-5.32.21.36v-.36ZM1429.94,254l.33.55c0-.13,0-.26,0-.39a1.47,1.47,0,0,0-.28-.16"/><path class="cls-2" d="M1291,181.09H1159.23a9.72,9.72,0,0,1,0-19.43H1291a9.72,9.72,0,0,1,0,19.43"/><path class="cls-2" d="M1339.33,323.21h-101a9.71,9.71,0,0,1,0-19.42h101a9.71,9.71,0,1,1,0,19.42"/><polygon class="cls-3" points="1325.71 227.65 1304.13 198.55 1271.74 198.55 1271.74 227.65 1325.71 227.65"/><path class="cls-8" d="M1195.31,298.06a17.46,17.46,0,1,1-17.46-17.46,17.46,17.46,0,0,1,17.46,17.46"/><path class="cls-8" d="M1416.37,298.06a17.47,17.47,0,1,1-17.46-17.46,17.46,17.46,0,0,1,17.46,17.46"/><path class="cls-8" d="M1181.3,262.65a29.11,29.11,0,1,1,29.11-29.11,29.16,29.16,0,0,1-29.11,29.11"/><polygon class="cls-7" points="1175.9 212.66 1186.7 212.66 1186.7 223.16 1195.3 217.14 1201.49 225.99 1190.71 233.54 1201.49 241.09 1195.3 249.93 1186.7 243.91 1186.7 254.41 1175.9 254.41 1175.9 243.91 1167.3 249.93 1161.11 241.09 1171.89 233.54 1161.11 225.99 1167.3 217.14 1175.9 223.16 1175.9 212.66"/><polygon class="cls-2" points="817 388.81 839.37 312.73 863.08 388.81 817 388.81"/><polygon class="cls-2" points="863.51 388.2 892.95 288.12 924.13 388.2 863.51 388.2"/><path class="cls-3" d="M259.6,37.88a29.05,29.05,0,0,1,34.22,0L307.68,24a48.52,48.52,0,0,0-62,0Z"/><path class="cls-3" d="M253.26,78.43a29,29,0,0,1,0-34.21L239.39,30.35a48.52,48.52,0,0,0,0,62Z"/><path class="cls-3" d="M293.82,84.78a29.05,29.05,0,0,1-34.22,0L245.73,98.64a48.49,48.49,0,0,0,62,0Z"/><path class="cls-3" d="M300.16,44.22a29,29,0,0,1,0,34.21L314,92.3a48.52,48.52,0,0,0,0-61.95Z"/><path class="cls-2" d="M832.87,270.4a50.64,50.64,0,0,0-91.32,0Z"/><path class="cls-2" d="M741.55,270.4a50.65,50.65,0,0,0-91.33,0Z"/><path class="cls-2" d="M805.91,205.61a50.65,50.65,0,0,0-64.58,64.57Z"/><path class="cls-2" d="M741.33,270.18a50.65,50.65,0,0,0-64.57,64.58Z"/><path class="cls-2" d="M804.69,334.76a50.65,50.65,0,0,0-64.57-64.58Z"/><path class="cls-2" d="M740.12,270.18a50.65,50.65,0,0,0-64.58-64.57Z"/><rect class="cls-2" x="728.04" y="259.38" width="24.49" height="124.51"/></g></svg>