<svg id="Layer_1" data-name="Layer 1" xmlns="http://www.w3.org/2000/svg" viewBox="0 0 568.93 130.97"><defs><style>.cls-1{fill:#2e3192;}.cls-2{fill:#1c75bc;}.cls-3{fill:#555658;fill-rule:evenodd;}</style></defs><title>Logo</title><path class="cls-1" d="M41.32,64.44l1-.66,1.17,1.67-1.36,1,1.36,1L42.27,69l-1-.67v1.16h-2V68.37l-1,.67-1.17-1.68,1.36-1-1.36-1,1.17-1.67,1,.66V63.28h2Zm36.86,20.5h3.27v2.89l2.39-1.39,1.61,2.85-2.4,1.39,2.4,1.39-1.59,2.8-2.4-1.39v2.81H78.18V93.53l-2.36,1.35-1.64-2.82,2.39-1.38-2.39-1.43,1.6-2.78,2.42,1.38ZM70.05,95H52.67l1.43-5H0V87.14H70.05V95Zm.23,10.45H49.71l1.42-5H0V97.58H70.05v6.25A5.49,5.49,0,0,0,70.28,105.41Zm16.19,0H85a5.54,5.54,0,0,0-7.75,0H75.79a6.65,6.65,0,0,1,10.68,0Zm13.91,4L94.14,131H42.46l2.75-9.69H0v-2.81H87.76v-2.62h-41l1.42-5H0V108H72a5.52,5.52,0,0,0,2.52,1.23,6.26,6.26,0,0,1,.13-1.23h1.13a5.92,5.92,0,0,0-.16,1.34,5.54,5.54,0,1,0,11.07,0A5.4,5.4,0,0,0,86.5,108h1.14a7.51,7.51,0,0,1,.13,1.34ZM13.15,69.07H0V66.25H17l-.69,1.08c-.43.66-.55,1.06-1.18,1.35a1.48,1.48,0,0,1-.74.14,2.22,2.22,0,0,0-1.18.24Zm77.3,5H15.15l.79-2.64.1,0c.26.12.25.27.67.27H19.8a10.32,10.32,0,0,0,1.34,0,33.17,33.17,0,0,0,3.61-.11c.29,0,.65,0,.94,0a6.6,6.6,0,0,1,.83,0c.31,0,.5-.07.89-.06h.94c.86,0,1.74-.19,2.6-.18s1.8-.15,2.6-.18c.26,0,.58-.1.83-.12a16.45,16.45,0,0,0,1.77-.11c.51-.09,1.22-.06,1.69-.15s2-.18,2.51-.26c.74-.11,2-.18,2.55-.29.81-.17,1.6-.21,2.37-.34a5.1,5.1,0,0,1,.86-.08,1.57,1.57,0,0,0,.4-.08c.12,0,.18,0,.36-.06s.59-.06.84-.1l6.38-1.06c.74-.19,1.57-.21,2.34-.44l3-.61c.87-.15,2.21-.59,3-.71a2.23,2.23,0,0,0,.41-.06l.35-.12,1-.24H85v1.13Zm27.09,0H93.63l.2-.19c.14-.14.07-.44,0-.59l-4.06-7h21.57Zm39.1-10.23-6.9,25.21H122.63a16.61,16.61,0,0,0-13.82-7.38V79.43a2.49,2.49,0,1,0-5,0v2.25H75.59a5.55,5.55,0,0,0-4.84,2.84H12l1.5-5H0V76.69H143.47V74.08h-23.6l.48-.48-2.95-7.35h28.89v-2.4ZM84.45,109.43v-.07a3.35,3.35,0,0,0-.28-1.34h0a3.33,3.33,0,0,0-6,0h0a3.2,3.2,0,0,0-.29,1.34v.07a3.33,3.33,0,0,0,6.65,0ZM17,72.67a1.13,1.13,0,0,0,.34.61,2.4,2.4,0,0,0,.76.6,4.19,4.19,0,0,0,2,.15c.88,0,1.85.07,2.72,0,.22,0,.15,0,.41-.06H26.4c1.14,0,2.39-.12,3.55-.12s2.35,0,3.6,0a31,31,0,0,0,3.63,0,15.29,15.29,0,0,1,1.8,0c.4,0,.51-.06.89-.06l2.66-.06c3,0,6-.12,9-.12.64,0,1.1-.06,1.77-.06A14.77,14.77,0,0,0,56.5,73a1.51,1.51,0,0,1,.37-.1l4.24-1.73a10.5,10.5,0,0,0,1.64-1.07l3-2.52.44-.44c.23-.23.26-.18.34-.54l-3.14.81-.36.06c-.29,0-.47.15-.7.18a4.41,4.41,0,0,0-.74.15c-.25.07-.43.1-.68.15s-.4.14-.7.18l-1.48.3c-.25,0-.43.12-.66.16l-1.48.29a12.65,12.65,0,0,1-1.46.26c-.25,0-.44.14-.71.17a5.63,5.63,0,0,0-.78.11l-.36.11c-.16,0-.24,0-.39,0l-3.7.61c-.51.12-1,.13-1.54.24l-1.5.2c-.33.05-.42.1-.76.13l-4.68.53a5.27,5.27,0,0,0-.71.11c-.58.08-1.88.15-2.4.26l-3.2.28H34c-.23,0-.12,0-.35.06-.6,0-1.08,0-1.65.12-.72.08-1.85.07-2.44.16l-1.7.07c-.27,0-.41.06-.77.06l-5,.21C21.34,72.72,18.23,72.57,17,72.67Zm91.86,16.39V85.52a1.53,1.53,0,0,1,.52-1.15,1.56,1.56,0,0,1,1.2-.38,14.38,14.38,0,0,1,9.31,5.07Z"/><path class="cls-2" d="M92.21,35.12h16.32l-4.67,4.67L99.32,38l.75-.74a1,1,0,0,0,0-1.42l-.23-.22a1,1,0,0,0-1.41,0L97,37Zm-3.28,7.63H24.58l.2-.66H67.62l1.23-4.35H0V34.92H.16v.2H79.78L85,39.25l1.62,1.28Zm1.45,10.44h-69l1.52-5H0V45.36H.16v.2H91.88l3.13,3ZM113.28,56h36.05V53.19H112.15l-.79-2,1.41-1.41a1,1,0,0,0,0-1.41l-.22-.22a1,1,0,0,0-1.41,0l-.75.74-1.23-3.37H152.1V42.75H111.3l6.82-6.82c1.71-1.64,1.78-4.46.45-5.8s-4-1-5.65.6l-2,2v-.46H85.16L85,32.24l-9.72-3.87-1.79,1.78,2.73,2.16H70.39l1.42-5H0V24.48H.16v.2H114.48V21.86H73.35l1.42-5H0V14H.16v.21h117V11.42H76.3l1.42-5H0V3.79H120.31V2h10.35L119.3,42.09h43.45l-6.11,21.76H146.29v-.22H116.34ZM98,56h4.24l5.94,6.22,1.12,1.4H90.41ZM77.51,56H87.57l-2.51,2.51L84.49,60ZM40.22,57.8c0-.22,1.91-.2,2-.2a4.43,4.43,0,0,0,.62,0c2,0,2-.22,3.48.71l4.44,2.36v.29a8.12,8.12,0,0,1-1,.06l-2.71.12a38,38,0,0,1-4.55.18c-.1-.15-.22-.28-.33-.44l-1-1.52A7.74,7.74,0,0,1,40.22,57.8Zm-7.79,1.48c0-.4,1.07-.69,1.28-.79a4,4,0,0,1,.79-.21A12.11,12.11,0,0,1,36.2,58l2.31-.23c1,0,.76.09,1.24.77L41,60.27c.13.17.17.28.3.46.26.36.27.26.27.61a1.82,1.82,0,0,1-.82.12,6.55,6.55,0,0,0-.89.06c-.62,0-1.24,0-1.83.06s-3.43.37-4,0l-.48-.35c-.09-.07-.07,0-.17-.12a2.11,2.11,0,0,1-.49-.63c-.07-.12-.11-.24-.18-.35A1.54,1.54,0,0,1,32.43,59.28Zm8-3.27H73.92l-.5.52a.6.6,0,0,0,.15.74l7.82,6.36H68.8c.39-.73.71-1.57.37-1.87-.17-.14-.12-.14-.34-.2s-.47,0-.72-.05-.19-.34-.59-.93c-.78,0-.72.07-1,.62s-1.08.15-1.51.14a3.42,3.42,0,0,1-.64,0c-.56-.09-3.09-.09-3.59-.19S56.5,61,55.88,61H53.4a2.1,2.1,0,0,1-1.4-.25l-4.8-2.41c-.12-.06-.08-.07-.22-.13l-.4-.2c-.69-.4-.7-.12-.84-.75s-1.05-.75-1.67-.81c-.22,0-.36-.09-.54-.11l-1.72-.16a3,3,0,0,0-.58-.08ZM18.27,63.63l1.51-5H0V55.81H.16V56H27.22a1.63,1.63,0,0,0,0,.49,3.33,3.33,0,0,0,.55,1.58,3.62,3.62,0,0,1,.57,1.49c0,.39-.41,2-.47,2.54-.09.82-.31,1.28-1.18,1.3-.26,0-.24,0-.42.05-.36,0-.56,0-.9.1l-.74.07Z"/><polygon class="cls-1" points="183.31 48.45 207.27 48.45 207.27 57.52 172.03 57.52 172.03 2.75 183.31 2.75 183.31 48.45"/><rect class="cls-1" x="214.46" y="2.75" width="11.28" height="54.76"/><polygon class="cls-1" points="269.15 35.14 247.48 35.14 247.48 57.52 236.2 57.52 236.2 2.75 271.86 2.75 271.86 11.89 247.48 11.89 247.48 26.04 269.15 26.04 269.15 35.14"/><polygon class="cls-1" points="311.35 33.71 289.69 33.71 289.69 48.45 315.11 48.45 315.11 57.52 278.4 57.52 278.4 2.75 315.04 2.75 315.04 11.89 289.69 11.89 289.69 24.95 311.35 24.95 311.35 33.71"/><path class="cls-1" d="M365.06,50.6a19.58,19.58,0,0,1-8.61,5.66,36.14,36.14,0,0,1-12.34,2,24.52,24.52,0,0,1-12.47-3.1,20.73,20.73,0,0,1-8.27-9,31.61,31.61,0,0,1-3-13.88V28.56a33.71,33.71,0,0,1,2.76-14.2,20.45,20.45,0,0,1,8-9.18A23,23,0,0,1,343.32,2q9.74,0,15.23,4.65t6.51,13.52h-11c-.5-3.14-1.61-5.43-3.33-6.89a10.66,10.66,0,0,0-7.09-2.18,10,10,0,0,0-8.77,4.33q-3,4.32-3,12.86v3.5q0,8.61,3.27,13t9.59,4.4q6.36,0,9.07-2.7V37.06H343.51V28.74h21.55Z"/><path class="cls-3" d="M530.83,109.68h23.24l-11.6-31.15Zm-114.64-7.21h16.7a13.37,13.37,0,0,0,9.79-3.66,12.37,12.37,0,0,0,3.7-9.21A11.93,11.93,0,0,0,442.3,80c-3.17-2.72-7.36-3.55-11.44-3.55H416.19Zm-58,7.21h23.24L369.78,78.53ZM257.4,97.15c0-5.65-1.22-11.25-4.93-15.66-3.42-4.08-7.92-5.8-13.19-5.8s-9.69,1.73-13.09,5.76c-3.76,4.45-4.92,10.27-4.92,16v8.16A27.5,27.5,0,0,0,223.51,117a16.87,16.87,0,0,0,6.28,7.49,17.32,17.32,0,0,0,9.56,2.62c5.26,0,9.76-1.71,13.16-5.78,3.75-4.48,4.89-10.36,4.89-16.06Zm298.1,16.38H529.4l-6.21,16.67H519l21.56-57.6h3.76l21.56,57.6h-4.16Zm-37.68-1.23c-.49,5.25-2.23,10.22-6.23,13.82S502.34,131,497,131a19.64,19.64,0,0,1-11-3.15,20.69,20.69,0,0,1-7.44-8.93,31.22,31.22,0,0,1-2.65-13V97.23a32.18,32.18,0,0,1,2.57-13.11A20.68,20.68,0,0,1,486,75.05,19.67,19.67,0,0,1,497,71.84c5.29,0,10.47,1.23,14.51,4.82s5.78,8.52,6.27,13.77l.09,1h-3.84l-.09-.79c-.48-4.18-1.86-8.28-5.07-11.15s-7.62-3.78-11.87-3.78a15.26,15.26,0,0,0-12.44,5.8c-3.66,4.49-4.81,10.23-4.81,15.89v8.2a28.12,28.12,0,0,0,2.15,11.32,17.25,17.25,0,0,0,6.07,7.54,15.66,15.66,0,0,0,9,2.68c4.25,0,8.65-.85,11.93-3.73s4.58-7.07,5-11.26l.08-.8h3.85Zm-51.68,17.9h-3.85V72.6h3.85Zm-32-23.88h-18V130.2h-3.85V72.6H431c5.07,0,10.06,1.16,13.95,4.56,3.72,3.24,5.27,7.55,5.27,12.44a16,16,0,0,1-3.75,10.55,15.79,15.79,0,0,1-8.3,5.33l14.39,23v1.68H449Zm-51.34,7.21h-26.1l-6.21,16.67h-4.17L367.9,72.6h3.77l21.56,57.6h-4.16ZM331,76.45V130.2h-3.85V76.45H306.82V72.6h44.49v3.85Zm-28.46,39.48a9.68,9.68,0,0,0-1.52-5.54,13.39,13.39,0,0,0-4.93-4.08,33.13,33.13,0,0,0-4.38-1.87c-2.06-.74-4.16-1.37-6.27-2s-4.31-1.25-6.41-2a33.5,33.5,0,0,1-4.66-2.09,15.23,15.23,0,0,1-5.62-5,12.91,12.91,0,0,1-1.83-7,12.58,12.58,0,0,1,5.5-10.59c4-3,9-4,13.91-4a22.56,22.56,0,0,1,10,2.18,16.56,16.56,0,0,1,7,6.2,16.73,16.73,0,0,1,2.47,9v.89H302v-.89a12.32,12.32,0,0,0-4.3-9.66c-3.18-2.83-7.14-3.86-11.33-3.86-4,0-8.09.73-11.38,3.11a9,9,0,0,0-4.18,7.5,8.84,8.84,0,0,0,3.61,7.39,22,22,0,0,0,5,2.77A57.33,57.33,0,0,0,287.08,99a61.9,61.9,0,0,1,8,2.59,26.53,26.53,0,0,1,5.63,3,13.38,13.38,0,0,1,5.73,11.3,13.19,13.19,0,0,1-2.55,8,16.08,16.08,0,0,1-7.14,5.3A27,27,0,0,1,286.59,131a29.11,29.11,0,0,1-11.23-2.08,15.66,15.66,0,0,1-10.25-15.33v-.89H269v.89a11.61,11.61,0,0,0,4.78,9.94c3.71,2.74,8.32,3.62,12.85,3.62a19.74,19.74,0,0,0,11.56-3.19A9.37,9.37,0,0,0,302.53,115.93Zm-41.28-10.35a31.16,31.16,0,0,1-2.67,13.2,20.63,20.63,0,0,1-7.71,9A21,21,0,0,1,239.35,131a20.17,20.17,0,0,1-15.93-7c-4.53-5.22-6-11.92-6-18.68v-8a31.1,31.1,0,0,1,2.67-13.18,20.69,20.69,0,0,1,7.73-9,22.44,22.44,0,0,1,23,0,20.73,20.73,0,0,1,7.75,9,31,31,0,0,1,2.69,13.16Zm-49.31,6.72c-.49,5.25-2.23,10.22-6.23,13.82S196.46,131,191.16,131a19.64,19.64,0,0,1-11-3.15,20.67,20.67,0,0,1-7.43-8.93,31.07,31.07,0,0,1-2.65-13V97.23a32,32,0,0,1,2.57-13.11,20.59,20.59,0,0,1,7.43-9.07,19.7,19.7,0,0,1,11.09-3.21c5.3,0,10.47,1.23,14.51,4.82s5.78,8.52,6.27,13.77l.09,1h-3.84l-.09-.79c-.48-4.18-1.86-8.28-5.07-11.15s-7.62-3.78-11.87-3.78a15.26,15.26,0,0,0-12.44,5.8c-3.66,4.49-4.8,10.23-4.8,15.89v8.2a28.11,28.11,0,0,0,2.14,11.32,17.32,17.32,0,0,0,6.07,7.54,15.66,15.66,0,0,0,9,2.68c4.25,0,8.65-.85,11.93-3.73s4.58-7.07,5-11.26l.08-.8H212Z"/><path class="cls-1" d="M415.65,2.75V38.82q0,9-5.62,14.22t-15.37,5.23q-9.59,0-15.23-5.08t-5.76-13.95V2.75H385V38.9q0,5.39,2.57,7.84a9.92,9.92,0,0,0,7.13,2.46q9.52,0,9.67-10V2.75Z"/><path class="cls-1" d="M455,46.23H435.21l-3.76,11.29h-12L439.83,2.75h10.46l20.5,54.77h-12Zm-16.73-9.14H452l-6.89-20.5Z"/><path class="cls-1" d="M496.18,37.47h-9V57.52H475.91V2.75h20.34q9.71,0,15,4.33t5.27,12.22a16.84,16.84,0,0,1-2.43,9.35,16.5,16.5,0,0,1-7.35,6L518.56,57v.53H506.45Zm-9-9.14h9.1a9.3,9.3,0,0,0,6.58-2.16,7.72,7.72,0,0,0,2.34-6,8.3,8.3,0,0,0-2.2-6.09q-2.2-2.22-6.76-2.22h-9.06Z"/><path class="cls-1" d="M525.07,57.52V2.75h16.85A25.6,25.6,0,0,1,554.84,6a22.65,22.65,0,0,1,8.89,9.25,28.54,28.54,0,0,1,3.2,13.63v2.52A28.67,28.67,0,0,1,563.79,45a22.62,22.62,0,0,1-8.86,9.22A25.84,25.84,0,0,1,542,57.52Zm11.28-45.63V48.45h5.45q6.63,0,10.12-4.32t3.57-12.38V28.86q0-8.35-3.46-12.66t-10.11-4.31Z"/></svg>